<?xml version="1.0" standalone="no"?>
<!DOCTYPE svg PUBLIC "-//W3C//DTD SVG 20010904//EN"
 "http://www.w3.org/TR/2001/REC-SVG-20010904/DTD/svg10.dtd">
<svg version="1.0" xmlns="http://www.w3.org/2000/svg"
 width="200.000000pt" height="200.000000pt" viewBox="0 0 200.000000 200.000000"
 preserveAspectRatio="xMidYMid meet">
<metadata>
Created by potrace 1.11, written by Peter Selinger 2001-2013
</metadata>
<g transform="translate(0.000000,200.000000) scale(0.100000,-0.100000)"
fill="#000000" stroke="none">
<path d="M866 1975 c-35 -18 -65 -24 -105 -24 -31 0 -67 -4 -81 -9 -28 -11
-161 -128 -154 -135 8 -8 -77 -76 -123 -98 -24 -12 -42 -23 -39 -26 9 -9 109
52 146 89 27 28 50 40 91 49 30 6 68 18 84 27 42 21 116 74 110 80 -2 2 -21
-9 -42 -25 -46 -36 -95 -59 -151 -72 -39 -8 -42 -8 -30 7 23 30 73 73 101 89
39 20 85 18 201 -6 111 -23 154 -26 208 -11 31 9 44 7 77 -10 22 -11 46 -20
53 -19 7 0 -7 10 -32 21 l-45 20 30 9 c59 17 131 13 168 -10 19 -12 41 -28 48
-37 12 -14 6 -15 -60 -10 -41 4 -78 9 -82 12 -5 3 -9 0 -9 -5 0 -6 10 -11 23
-12 12 0 51 -3 87 -6 65 -5 65 -5 122 -67 35 -38 81 -76 118 -95 38 -20 65
-42 70 -57 13 -32 22 -31 14 2 l-7 27 43 -24 c57 -32 104 -81 117 -121 7 -22
11 -26 12 -13 2 48 -78 129 -154 157 -25 8 -40 25 -60 63 -26 53 -85 119 -85
97 0 -7 6 -15 14 -18 17 -6 60 -69 71 -103 l7 -23 -40 22 c-42 23 -87 63 -137
119 l-30 34 38 -7 c21 -4 46 -9 55 -12 9 -2 4 2 -13 10 -16 8 -41 15 -55 16
-14 0 -38 12 -55 26 -65 56 -124 68 -223 45 -34 -7 -49 -4 -99 20 -32 15 -74
30 -93 33 -29 5 -26 3 15 -13 126 -46 136 -57 68 -67 -48 -7 -171 8 -201 25
-13 7 -10 12 16 25 17 9 38 16 47 16 8 0 15 5 15 10 0 14 -9 12 -64 -15z"/>
<path d="M490 1810 c0 -5 5 -10 10 -10 6 0 10 5 10 10 0 6 -4 10 -10 10 -5 0
-10 -4 -10 -10z"/>
<path d="M450 1800 c0 -5 7 -7 15 -4 8 4 15 8 15 10 0 2 -7 4 -15 4 -8 0 -15
-4 -15 -10z"/>
<path d="M395 1788 c-37 -20 -72 -59 -90 -99 -10 -21 -23 -39 -30 -39 -6 0
-30 -16 -53 -36 -30 -26 -46 -49 -57 -86 -8 -29 -15 -59 -14 -67 0 -9 7 8 16
38 8 30 23 66 34 80 20 24 67 61 80 61 3 0 -5 -31 -18 -69 -25 -68 -103 -180
-103 -146 0 9 -4 14 -10 10 -5 -3 -7 -11 -5 -18 3 -7 -14 -32 -36 -56 -64 -70
-82 -114 -76 -183 4 -40 1 -68 -9 -88 -17 -33 -28 -100 -16 -100 4 0 8 16 9
35 2 40 21 81 32 69 4 -5 16 -37 26 -71 17 -59 17 -107 0 -198 -3 -16 -8 -61
-11 -100 -4 -57 -2 -76 13 -101 21 -38 79 -104 90 -104 20 0 127 -96 154 -137
16 -26 27 -48 25 -51 -2 -2 -29 8 -60 23 -64 30 -103 72 -112 120 -3 19 -10
35 -15 35 -15 0 28 -100 53 -122 13 -11 50 -33 83 -49 41 -18 65 -37 75 -56
34 -66 74 -114 110 -133 46 -23 50 -24 50 -8 0 6 -3 9 -6 5 -9 -9 -59 18 -85
46 -35 37 -63 98 -49 107 9 6 7 10 -6 14 -11 3 -27 23 -37 44 -25 52 -59 89
-135 146 -34 26 -60 51 -57 56 12 20 -14 160 -39 209 -23 46 -25 59 -20 129 5
65 2 89 -19 151 l-25 73 34 59 c39 66 64 131 63 163 0 11 -7 -2 -14 -30 -8
-28 -23 -67 -34 -85 -12 -19 -25 -44 -31 -56 -16 -38 -30 -26 -30 25 0 36 7
59 29 93 44 66 57 79 75 79 9 0 15 4 14 8 -2 5 14 29 36 53 39 45 61 86 91
172 11 30 26 53 43 63 23 12 24 14 5 9 -28 -8 -28 -4 -4 36 20 32 48 56 91 76
14 6 18 12 10 12 -8 0 -24 -5 -35 -11z m-285 -1028 c19 -38 47 -187 36 -197
-7 -7 -30 17 -55 58 -12 20 -21 51 -21 75 0 42 10 104 16 104 2 0 13 -18 24
-40z"/>
<path d="M1681 1593 c23 -30 56 -59 103 -94 25 -18 46 -40 46 -48 3 -103 20
-175 56 -237 14 -24 21 -51 19 -65 -9 -47 -7 -115 4 -158 7 -23 15 -41 18 -38
3 4 0 20 -6 38 -14 39 -15 146 -1 154 5 3 21 -17 35 -44 28 -57 33 -128 10
-176 -13 -29 -14 -29 -20 -7 -4 12 -11 22 -15 22 -5 0 -3 -13 2 -29 10 -25 7
-35 -25 -88 -44 -71 -66 -130 -69 -181 -1 -26 -12 -47 -35 -72 -34 -36 -67
-98 -97 -181 -11 -32 -24 -49 -44 -57 -18 -8 -20 -10 -4 -6 27 7 28 -2 2 -44
-23 -38 -71 -69 -120 -78 -19 -4 -42 -10 -50 -15 -27 -16 53 3 102 23 44 19
98 77 98 106 0 6 24 27 53 46 62 41 85 83 96 173 6 54 12 65 56 110 46 47 84
113 65 113 -4 0 -11 -12 -14 -26 -4 -15 -27 -48 -51 -73 l-45 -46 0 31 c0 43
21 99 61 164 23 38 35 50 37 37 2 -9 7 -17 12 -17 6 0 6 10 1 23 -6 15 -3 33
10 59 34 67 25 144 -28 229 -20 34 -21 42 -11 100 7 47 7 76 -1 107 -13 47
-85 137 -118 146 -11 3 -47 31 -79 61 -60 56 -77 69 -53 38z m203 -175 c14
-18 31 -50 37 -71 11 -40 3 -147 -11 -147 -11 0 -48 79 -55 115 -9 55 -13 135
-5 135 4 0 19 -14 34 -32z m-57 -892 c-3 -30 -12 -68 -21 -84 -16 -32 -82 -89
-92 -80 -6 7 34 115 55 148 19 30 53 70 59 70 3 0 2 -24 -1 -54z"/>
<path d="M435 1281 c-2 -4 26 -79 61 -166 36 -88 88 -218 116 -290 29 -71 56
-133 61 -136 5 -4 28 -6 51 -5 l41 1 117 290 c64 160 117 295 117 301 1 10
-75 13 -82 3 -2 -2 -45 -112 -97 -244 -51 -132 -96 -244 -100 -248 -4 -4 -39
77 -80 180 -134 345 -120 318 -163 319 -21 1 -39 -2 -42 -5z"/>
<path d="M1026 1282 c-2 -4 32 -95 76 -202 43 -107 94 -235 114 -284 19 -50
39 -95 45 -102 14 -17 89 -14 99 5 7 15 209 515 223 554 10 28 6 32 -29 33
-41 2 -47 -5 -78 -87 -13 -35 -30 -77 -37 -94 -7 -16 -13 -32 -13 -35 -4 -16
-109 -276 -115 -282 -4 -4 -49 101 -101 235 -51 133 -97 246 -102 252 -10 11
-76 17 -82 7z"/>
<path d="M14 942 c18 -49 46 -105 51 -100 2 2 -7 26 -20 53 -13 28 -25 55 -25
62 0 6 -4 15 -10 18 -5 3 -3 -12 4 -33z"/>
<path d="M1959 818 c-5 -17 -4 -48 3 -48 4 0 8 11 8 25 0 20 -7 34 -11 23z"/>
<path d="M1568 295 c-26 -14 -64 -42 -85 -63 -30 -30 -53 -42 -105 -54 -61
-16 -197 -92 -184 -105 2 -3 29 14 60 36 52 39 162 79 175 65 3 -3 -18 -28
-47 -54 -72 -65 -114 -72 -249 -44 -96 19 -156 23 -209 12 -34 -8 -48 -5 -91
17 -28 14 -59 25 -69 25 -11 -1 3 -10 30 -20 74 -29 76 -37 12 -45 -73 -9
-120 -2 -162 27 -40 27 -44 40 -9 34 14 -3 25 -1 25 3 0 4 -14 8 -32 9 -25 1
-44 14 -95 66 -65 67 -110 103 -119 93 -3 -2 10 -14 28 -25 19 -12 57 -46 85
-76 47 -50 50 -55 30 -59 -21 -4 -21 -4 2 -6 13 0 40 -14 60 -30 20 -15 46
-33 58 -40 27 -14 116 -14 163 -1 30 9 43 6 95 -19 79 -38 132 -44 186 -19 23
10 40 21 37 23 -3 3 -19 -2 -37 -11 -18 -9 -50 -16 -71 -16 -41 1 -140 38
-140 53 0 19 145 15 215 -6 65 -19 155 -19 198 -1 32 13 147 119 147 135 0 16
73 73 117 93 24 10 43 21 43 23 0 9 -15 4 -62 -20z"/>
<path d="M670 133 c0 -10 57 -9 67 0 3 4 -10 7 -30 7 -20 0 -37 -3 -37 -7z"/>
</g>
</svg>
